<?xml version="1.0" encoding="UTF-8" standalone="no"?>
<!-- Created with Inkscape (http://www.inkscape.org/) -->

<svg
   xmlns:dc="http://purl.org/dc/elements/1.1/"
   xmlns:cc="http://creativecommons.org/ns#"
   xmlns:rdf="http://www.w3.org/1999/02/22-rdf-syntax-ns#"
   xmlns:svg="http://www.w3.org/2000/svg"
   xmlns="http://www.w3.org/2000/svg"
   xmlns:xlink="http://www.w3.org/1999/xlink"
   xmlns:sodipodi="http://sodipodi.sourceforge.net/DTD/sodipodi-0.dtd"
   xmlns:inkscape="http://www.inkscape.org/namespaces/inkscape"
   width="500"
   height="500"
   viewBox="0 0 132.29166 132.29167"
   version="1.1"
   id="svg8"
   inkscape:version="0.91 r13725"
   sodipodi:docname="BroadcastToMQTT-icon.svg">
  <defs
     id="defs2">
    <linearGradient
       inkscape:collect="always"
       id="linearGradient4187">
      <stop
         style="stop-color:#d7d7d7;stop-opacity:1"
         offset="0"
         id="stop4189" />
      <stop
         style="stop-color:#ffffff;stop-opacity:1"
         offset="1"
         id="stop4191" />
    </linearGradient>
    <linearGradient
       inkscape:collect="always"
       xlink:href="#linearGradient4187"
       id="linearGradient4193"
       x1="-163.52209"
       y1="276.49728"
       x2="-132.29565"
       y2="243.80234"
       gradientUnits="userSpaceOnUse"
       gradientTransform="translate(-0.00835217,0.03340869)" />
  </defs>
  <sodipodi:namedview
     id="base"
     pagecolor="#ffffff"
     bordercolor="#666666"
     borderopacity="1.0"
     inkscape:pageopacity="0.0"
     inkscape:pageshadow="2"
     inkscape:zoom="0.49497475"
     inkscape:cx="-388.37352"
     inkscape:cy="412.65843"
     inkscape:document-units="mm"
     inkscape:current-layer="layer1"
     showgrid="false"
     units="px"
     inkscape:window-width="1600"
     inkscape:window-height="1137"
     inkscape:window-x="-8"
     inkscape:window-y="-8"
     inkscape:window-maximized="1" />
  <metadata
     id="metadata5">
    <rdf:RDF>
      <cc:Work
         rdf:about="">
        <dc:format>image/svg+xml</dc:format>
        <dc:type
           rdf:resource="http://purl.org/dc/dcmitype/StillImage" />
        <dc:title />
      </cc:Work>
    </rdf:RDF>
  </metadata>
  <g
     inkscape:label="Layer 1"
     inkscape:groupmode="layer"
     id="layer1"
     transform="translate(0,-164.70832)">
    <path
       d="m -26.165878,255.52743 -50.038116,0 0,-65.33669 50.038116,0 z m -25.019335,8.39101 c -1.685034,0 -3.049472,-1.36497 -3.049472,-3.05167 0,-1.68339 1.364438,-3.04946 3.049472,-3.04946 1.685031,0 3.051125,1.36607 3.051125,3.04946 0,1.6867 -1.366094,3.05167 -3.051125,3.05167 m -12.595597,-79.09842 26.528091,0 c 0.369069,0 0.669276,0.29966 0.669276,0.66925 0,0.37073 -0.300207,0.67039 -0.669276,0.67039 l -26.528091,0 c -0.368515,0 -0.669277,-0.29966 -0.669277,-0.67039 0,-0.36959 0.300762,-0.66925 0.669277,-0.66925 m 34.905331,-5.1416 -44.619466,0 c -4.438699,0 -8.040117,3.60088 -8.040117,8.04069 l 0,72.37042 c 0,4.44091 3.601418,8.04233 8.040117,8.04233 l 44.619466,0 c 4.440352,0 8.039562,-3.60142 8.039562,-8.04233 l 0,-72.37042 c 0,-4.43981 -3.59921,-8.04069 -8.039562,-8.04069"
       style="fill:#808080;fill-opacity:1;fill-rule:nonzero;stroke:none;stroke-width:0.55084389"
       id="path120"
       inkscape:connector-curvature="0" />
    <path
       inkscape:connector-curvature="0"
       id="path4487-7"
       d="M 58.334098,244.1188 116.76552,182.5137"
       style="fill:#ffffff;stroke:#ffffff;stroke-width:11.24923134;stroke-linecap:butt;stroke-linejoin:miter;stroke-miterlimit:4;stroke-dasharray:none;stroke-opacity:1" />
    <path
       style="fill:#ffffff;fill-opacity:1;stroke:#ffffff;stroke-width:10;stroke-miterlimit:4;stroke-dasharray:none"
       d="m 87.563233,184.32819 h 28.915157 v 28.91518 z"
       id="rect4531"
       inkscape:connector-curvature="0"
       sodipodi:nodetypes="cccc" />
    <g
       id="g4584"
       transform="matrix(1.4751082,0,0,1.4751082,110.27894,-119.92809)"
       style="fill:#ffffff">
      <path
         sodipodi:nodetypes="caccacc"
         inkscape:connector-curvature="0"
         id="path4574"
         d="m -22.723686,229.77587 c 0,0 -13.384359,13.85826 -20.785624,19.99354 -4.34788,3.60418 -13.805678,9.82093 -13.805678,9.82093 l 8.213336,7.46541 c 0,0 5.639406,-9.56261 9.182187,-13.80393 6.16301,-7.37819 20.785623,-19.99353 20.785623,-19.99353 z"
         style="color:#000000;font-style:normal;font-variant:normal;font-weight:normal;font-stretch:normal;font-size:medium;line-height:normal;font-family:sans-serif;font-variant-ligatures:normal;font-variant-position:normal;font-variant-caps:normal;font-variant-numeric:normal;font-variant-alternates:normal;font-feature-settings:normal;text-indent:0;text-align:start;text-decoration:none;text-decoration-line:none;text-decoration-style:solid;text-decoration-color:#000000;letter-spacing:normal;word-spacing:normal;text-transform:none;writing-mode:lr-tb;direction:ltr;text-orientation:mixed;dominant-baseline:auto;baseline-shift:baseline;text-anchor:start;white-space:normal;shape-padding:0;clip-rule:nonzero;display:inline;overflow:visible;visibility:visible;opacity:1;isolation:auto;mix-blend-mode:normal;color-interpolation:sRGB;color-interpolation-filters:linearRGB;solid-color:#000000;solid-opacity:1;vector-effect:none;fill:#ffffff;fill-opacity:1;fill-rule:nonzero;stroke:none;stroke-width:5;stroke-linecap:butt;stroke-linejoin:miter;stroke-miterlimit:4;stroke-dasharray:none;stroke-dashoffset:0;stroke-opacity:1;color-rendering:auto;image-rendering:auto;shape-rendering:auto;text-rendering:auto;enable-background:accumulate" />
      <path
         style="color:#000000;font-style:normal;font-variant:normal;font-weight:normal;font-stretch:normal;font-size:medium;line-height:normal;font-family:sans-serif;font-variant-ligatures:normal;font-variant-position:normal;font-variant-caps:normal;font-variant-numeric:normal;font-variant-alternates:normal;font-feature-settings:normal;text-indent:0;text-align:start;text-decoration:none;text-decoration-line:none;text-decoration-style:solid;text-decoration-color:#000000;letter-spacing:normal;word-spacing:normal;text-transform:none;writing-mode:lr-tb;direction:ltr;text-orientation:mixed;dominant-baseline:auto;baseline-shift:baseline;text-anchor:start;white-space:normal;shape-padding:0;clip-rule:nonzero;display:inline;overflow:visible;visibility:visible;opacity:1;isolation:auto;mix-blend-mode:normal;color-interpolation:sRGB;color-interpolation-filters:linearRGB;solid-color:#000000;solid-opacity:1;vector-effect:none;fill:#ffffff;fill-opacity:1;fill-rule:nonzero;stroke:none;stroke-width:5;stroke-linecap:butt;stroke-linejoin:miter;stroke-miterlimit:4;stroke-dasharray:none;stroke-dashoffset:0;stroke-opacity:1;color-rendering:auto;image-rendering:auto;shape-rendering:auto;text-rendering:auto;enable-background:accumulate"
         d="m -22.723686,229.77587 c 0,0 -17.278418,12.52988 -27.066458,16.51904 -5.171616,2.10771 -16.327712,3.75479 -16.327712,3.75479 l 7.254151,7.90547 c 0,0 8.407941,-5.50581 12.663406,-8.17785 8.951388,-5.62065 27.066457,-16.51903 27.066457,-16.51903 z"
         id="path4576"
         inkscape:connector-curvature="0"
         sodipodi:nodetypes="caccacc" />
      <path
         sodipodi:nodetypes="caccacc"
         inkscape:connector-curvature="0"
         id="path4578"
         d="m -19.133842,233.25829 c 0,0 -13.654588,17.03661 -17.650185,27.02726 -1.780818,4.45279 -2.609402,14.14845 -2.609402,14.14845 l -7.983744,-5.99886 c 0,0 4.674494,-7.86703 7.110736,-11.73943 5.72982,-9.10753 17.650175,-27.02727 17.650175,-27.02727 z"
         style="color:#000000;font-style:normal;font-variant:normal;font-weight:normal;font-stretch:normal;font-size:medium;line-height:normal;font-family:sans-serif;font-variant-ligatures:normal;font-variant-position:normal;font-variant-caps:normal;font-variant-numeric:normal;font-variant-alternates:normal;font-feature-settings:normal;text-indent:0;text-align:start;text-decoration:none;text-decoration-line:none;text-decoration-style:solid;text-decoration-color:#000000;letter-spacing:normal;word-spacing:normal;text-transform:none;writing-mode:lr-tb;direction:ltr;text-orientation:mixed;dominant-baseline:auto;baseline-shift:baseline;text-anchor:start;white-space:normal;shape-padding:0;clip-rule:nonzero;display:inline;overflow:visible;visibility:visible;opacity:1;isolation:auto;mix-blend-mode:normal;color-interpolation:sRGB;color-interpolation-filters:linearRGB;solid-color:#000000;solid-opacity:1;vector-effect:none;fill:#ffffff;fill-opacity:1;fill-rule:nonzero;stroke:none;stroke-width:5;stroke-linecap:butt;stroke-linejoin:miter;stroke-miterlimit:4;stroke-dasharray:none;stroke-dashoffset:0;stroke-opacity:1;color-rendering:auto;image-rendering:auto;shape-rendering:auto;text-rendering:auto;enable-background:accumulate" />
      <path
         sodipodi:nodetypes="caccacc"
         inkscape:connector-curvature="0"
         id="path4580"
         d="m -22.723686,229.77587 c 0,0 -21.697483,10.41459 -33.420487,12.22767 -5.494276,0.84975 -16.662757,-0.73124 -16.662757,-0.73124 l 5.000801,6.80349 c 0,0 10.267713,-1.26678 15.251801,-2.58984 11.46529,-3.04355 33.420486,-12.22766 33.420486,-12.22766 z"
         style="color:#000000;font-style:normal;font-variant:normal;font-weight:normal;font-stretch:normal;font-size:medium;line-height:normal;font-family:sans-serif;font-variant-ligatures:normal;font-variant-position:normal;font-variant-caps:normal;font-variant-numeric:normal;font-variant-alternates:normal;font-feature-settings:normal;text-indent:0;text-align:start;text-decoration:none;text-decoration-line:none;text-decoration-style:solid;text-decoration-color:#000000;letter-spacing:normal;word-spacing:normal;text-transform:none;writing-mode:lr-tb;direction:ltr;text-orientation:mixed;dominant-baseline:auto;baseline-shift:baseline;text-anchor:start;white-space:normal;shape-padding:0;clip-rule:nonzero;display:inline;overflow:visible;visibility:visible;opacity:1;isolation:auto;mix-blend-mode:normal;color-interpolation:sRGB;color-interpolation-filters:linearRGB;solid-color:#000000;solid-opacity:1;vector-effect:none;fill:#ffffff;fill-opacity:1;fill-rule:nonzero;stroke:none;stroke-width:5;stroke-linecap:butt;stroke-linejoin:miter;stroke-miterlimit:4;stroke-dasharray:none;stroke-dashoffset:0;stroke-opacity:1;color-rendering:auto;image-rendering:auto;shape-rendering:auto;text-rendering:auto;enable-background:accumulate" />
      <path
         style="color:#000000;font-style:normal;font-variant:normal;font-weight:normal;font-stretch:normal;font-size:medium;line-height:normal;font-family:sans-serif;font-variant-ligatures:normal;font-variant-position:normal;font-variant-caps:normal;font-variant-numeric:normal;font-variant-alternates:normal;font-feature-settings:normal;text-indent:0;text-align:start;text-decoration:none;text-decoration-line:none;text-decoration-style:solid;text-decoration-color:#000000;letter-spacing:normal;word-spacing:normal;text-transform:none;writing-mode:lr-tb;direction:ltr;text-orientation:mixed;dominant-baseline:auto;baseline-shift:baseline;text-anchor:start;white-space:normal;shape-padding:0;clip-rule:nonzero;display:inline;overflow:visible;visibility:visible;opacity:1;isolation:auto;mix-blend-mode:normal;color-interpolation:sRGB;color-interpolation-filters:linearRGB;solid-color:#000000;solid-opacity:1;vector-effect:none;fill:#ffffff;fill-opacity:1;fill-rule:nonzero;stroke:none;stroke-width:5;stroke-linecap:butt;stroke-linejoin:miter;stroke-miterlimit:4;stroke-dasharray:none;stroke-dashoffset:0;stroke-opacity:1;color-rendering:auto;image-rendering:auto;shape-rendering:auto;text-rendering:auto;enable-background:accumulate"
         d="m -19.133842,233.25829 c 0,0 -11.345819,20.91 -12.78278,32.44492 -0.606293,4.8669 1.869975,14.59424 1.869975,14.59424 l -7.254484,-4.41638 c 0,0 0.727671,-9.28621 1.902099,-13.7677 2.946721,-11.24438 12.78277,-32.44493 12.78277,-32.44493 z"
         id="path4582"
         inkscape:connector-curvature="0"
         sodipodi:nodetypes="caccacc" />
    </g>
    <path
       style="opacity:1;fill:#4d4d4d;fill-opacity:1;stroke:none;stroke-width:1.66617441;stroke-miterlimit:4;stroke-dasharray:none"
       d="m -146.98065,179.57978 26.99604,0 c 5.22708,0 9.43504,4.2848 9.43504,9.60739 l 0,27.09963 -4.54318,-4.57761 c 0.23105,-0.43546 0.36253,-0.93384 0.36253,-1.46356 0,-1.70257 -1.35476,-3.08115 -3.02845,-3.08115 -0.53081,0 -1.02912,0.13971 -1.46295,0.38429 l -3.83503,-3.86384 0,-18.71875 -18.57833,0 z"
       id="path4523"
       inkscape:connector-curvature="0" />
    <g
       id="g58"
       transform="matrix(0.13330844,0.13390319,0.13390318,-0.13330845,-108.86323,255.61604)"
       style="fill:#b3b3b3;fill-opacity:1">
      <path
         d="m 0,0 c -1.226,0 -2.433,-0.083 -3.62,-0.228 -6.714,13.514 -20.65,22.805 -36.762,22.805 -3.37,0 -6.641,-0.415 -9.776,-1.181 -0.901,31.559 -26.765,56.867 -58.541,56.867 -32.066,0 -58.109,-25.77 -58.558,-57.728 -4.025,1.319 -8.32,2.042 -12.787,2.042 -22.662,0 -41.033,-18.371 -41.033,-41.034 0,-0.747 0.022,-1.489 0.061,-2.226 -0.02,0 -0.041,0.002 -0.061,0.002 -10.717,0 -19.405,-8.688 -19.405,-19.405 0,-10.717 8.688,-19.404 19.405,-19.404 L 0,-59.49 c 16.428,0 29.745,13.317 29.745,29.745 C 29.745,-13.317 16.428,0 0,0"
         style="fill:#b3b3b3;fill-opacity:1;fill-rule:nonzero;stroke:none"
         id="path60"
         inkscape:connector-curvature="0" />
    </g>
    <path
       inkscape:connector-curvature="0"
       id="path4530"
       d="m -149.11611,230.61579 26.99604,0 c 5.22708,0 9.43504,4.2848 9.43504,9.60739 l 0,27.09963 -4.54318,-4.57761 c 0.23105,-0.43546 0.36253,-0.93384 0.36253,-1.46356 0,-1.70257 -1.35476,-3.08115 -3.02845,-3.08115 -0.53081,0 -1.02912,0.13971 -1.46295,0.38429 l -3.83503,-3.86384 0,-18.71875 -18.57833,0 z"
       style="opacity:1;fill:#4d4d4d;fill-opacity:1;stroke:none;stroke-width:1.66617441;stroke-miterlimit:4;stroke-dasharray:none" />
    <g
       id="g4197"
       transform="matrix(1.4454612,0,0,1.4454612,265.72767,-111.50083)"
       inkscape:export-filename="D:\Overige projecten\Android\broadcastToMQTT\app\src\main\res\drawable\launcher_icon.png"
       inkscape:export-xdpi="137.60921"
       inkscape:export-ydpi="137.60921">
      <path
         id="path4507"
         transform="matrix(0.26458333,0,0,0.26458333,0,164.70832)"
         d="m -606.10156,105.43555 c -16.77619,0 -30.38867,13.60828 -30.38867,30.38867 l 0,165.2793 20.14843,20.36132 0,-176.29882 189.1211,0 0,246.9414 -119.22071,0 14.52735,14.68164 c 1.95224,-3.58851 5.75555,-6.02539 10.13086,-6.02539 6.36861,0 11.5332,5.16297 11.5332,11.52539 0,4.42292 -2.48779,8.25595 -6.13672,10.19141 l 17.08594,17.26758 61.83789,0 c 16.78242,0 30.38672,-13.61195 30.38672,-30.39649 l 0,-273.52734 c 0,-16.78039 -13.6043,-30.38867 -30.38672,-30.38867 l -168.63867,0 z m 36.71484,19.43164 100.26367,0 c 1.39491,0 2.5293,1.13242 2.5293,2.52929 0,1.40119 -1.13439,2.53516 -2.5293,2.53516 l -100.26367,0 c -1.39283,0 -2.53125,-1.13397 -2.53125,-2.53516 0,-1.39687 1.13842,-2.52929 2.53125,-2.52929 z"
         style="fill:#064fbd;fill-opacity:1;fill-rule:nonzero;stroke:none;stroke-width:2.08192968"
         inkscape:connector-curvature="0" />
      <path
         sodipodi:nodetypes="ccsscccc"
         inkscape:connector-curvature="0"
         id="rect4528"
         transform="matrix(0.26458333,0,0,0.26458333,0,164.70832)"
         d="m -616.3418,145.16602 0,155.81836 81.10352,0 c 19.90972,0 35.9375,16.02977 35.9375,35.93945 l 0,55.18359 72.08008,0 0,-246.9414 z"
         style="opacity:1;fill:#e6e6e6;fill-opacity:1;stroke:none;stroke-width:18.89763832;stroke-miterlimit:4;stroke-dasharray:none" />
      <path
         style="opacity:1;fill:url(#linearGradient4193);fill-opacity:1;stroke:none;stroke-width:1.66401029;stroke-miterlimit:4;stroke-dasharray:none"
         d="m -168.44414,244.3774 26.8205,0 c 5.26778,0 9.50863,4.24085 9.50863,9.50862 l 0,27.20571 z"
         id="path4538"
         inkscape:connector-curvature="0"
         sodipodi:nodetypes="csscc" />
      <path
         inkscape:connector-curvature="0"
         id="path4174"
         d="m -154.59384,237.16585 c -2.23461,-0.005 -4.47127,0.84269 -6.18009,2.54393 -0.11265,0.11214 -0.22103,0.22686 -0.32632,0.3434 l -0.009,-0.009 c -1.60899,-1.61616 -4.22366,-1.62239 -5.83979,-0.0134 -1.1866,1.18132 -1.50141,2.90396 -0.95004,4.37623 l 26.32615,0 c 5.23111,0 9.44237,4.2884 9.44237,9.61509 l 0,26.37531 c 2.36808,1.19206 5.32856,0.80496 7.31062,-1.16829 2.47737,-2.46636 2.48655,-6.47368 0.0202,-8.95104 l 0,-5.2e-4 c -0.18405,-0.18487 -0.37759,-0.35425 -0.57767,-0.51146 1.02995,-3.0414 0.33892,-6.53789 -2.08004,-8.96762 -0.50593,-0.5082 -1.05993,-0.93927 -1.64611,-1.29703 4.6239,-4.87391 4.55752,-12.57392 -0.21307,-17.36582 -4.81416,-4.83564 -12.61043,-4.89416 -17.49717,-0.16394 -0.40537,-0.80499 -0.94084,-1.56102 -1.61147,-2.23465 -1.70117,-1.70875 -3.93411,-2.56638 -6.16872,-2.57134 z m -8.45819,12.63221 18.40531,18.48702 0,-18.48702 -18.40531,0 z m 23.70725,22.21524 c -0.46301,0 -0.89843,0.11164 -1.29083,0.30099 l 4.04368,4.06128 c 0.17531,-0.3903 0.27773,-0.82169 0.27773,-1.27894 0,-1.70388 -1.35561,-3.08333 -3.03058,-3.08333 z"
         style="fill:#d45500;fill-opacity:1;fill-rule:nonzero;stroke:none" />
    </g>
  </g>
</svg>
